<svg width="92" height="92" viewBox="0 0 92 92" fill="none" xmlns="http://www.w3.org/2000/svg">
<path d="M66.7546 25.3322C72.0302 30.6285 75.2912 37.9329 75.2912 45.9989C75.2912 56.5874 69.6717 65.8635 61.2524 71.0074C51.2163 77.1391 50.8867 67.6214 50.8867 60.6416C50.8867 57.946 48.7013 55.7607 46.0058 55.7607C43.3102 55.7607 41.1249 57.946 41.1249 60.6416C41.1249 67.2309 41.1249 77.3405 30.7592 71.0074C22.3399 65.8635 16.7203 56.5874 16.7203 45.9989C16.7203 37.9329 19.9814 30.6285 25.257 25.3322C32.5345 18.0258 39.3414 25.0111 32.1596 32.2348C28.6503 35.7646 26.4822 40.6285 26.4822 45.9989C26.4822 49.555 27.4329 52.8891 29.0941 55.7607C30.9759 59.0136 31.7989 55.7607 33.5562 52.9298C36.1387 48.7693 40.7486 45.9989 46.0058 45.9989C51.263 45.9989 55.8728 48.7693 58.4554 52.9298C60.2126 55.7607 61.0357 59.0136 62.9174 55.7607C64.5786 52.8891 65.5294 49.555 65.5294 45.9989C65.5294 40.6285 63.3612 35.7646 59.8519 32.2348C52.351 24.9134 59.6235 18.2009 66.7546 25.3322Z" fill="#EF6213"/>
<path d="M84.4057 53.0487C80.5128 74.2597 60.1621 88.2987 38.9512 84.4057C28.3534 82.4607 19.546 76.4071 13.871 68.1906C8.39675 60.2645 16.3863 54.6581 21.9064 62.6473C26.1627 68.8075 32.767 73.3459 40.7134 74.8043C56.6214 77.7239 71.8846 67.1947 74.8043 51.2865L17.183 51.2618C8.58633 51.3905 6.35442 49.0679 7.19446 41.647C7.29592 40.7508 7.42888 39.8517 7.59417 38.9512C11.4871 17.7402 31.8378 3.70125 53.0487 7.59419C63.6558 9.54095 72.4693 15.6034 78.1437 23.8309C83.5623 31.6875 75.6512 37.4115 70.1084 29.3741C65.8526 23.203 59.2421 18.6558 51.2865 17.1956C35.3785 14.276 20.1153 24.8052 17.1956 40.7134L74.7995 40.6442C83.68 40.5095 85.636 42.8534 84.8161 50.2577C84.7133 51.1855 84.5768 52.1163 84.4057 53.0487Z" fill="#3516F0"/>
<path d="M34.7531 51.2693L57.2622 51.279C54.5764 48.0527 50.5299 45.999 46.0036 45.999C41.4819 45.999 37.439 48.0486 34.7531 51.2693Z" fill="#EF6213"/>
</svg>
