<svg width="100" height="100" viewBox="0 0 100 100" fill="none" xmlns="http://www.w3.org/2000/svg">
<circle cx="50" cy="50" r="50" fill="white"/>
<path d="M70.7546 29.3322C76.0302 34.6285 79.2912 41.9329 79.2912 49.9989C79.2912 60.5874 73.6717 69.8635 65.2524 75.0074C55.2163 81.1391 54.8867 71.6214 54.8867 64.6416C54.8867 61.946 52.7013 59.7607 50.0058 59.7607C47.3102 59.7607 45.1249 61.946 45.1249 64.6416C45.1249 71.2309 45.1249 81.3405 34.7592 75.0074C26.3399 69.8635 20.7203 60.5874 20.7203 49.9989C20.7203 41.9329 23.9814 34.6285 29.257 29.3322C36.5345 22.0258 43.3414 29.0111 36.1596 36.2348C32.6503 39.7646 30.4822 44.6285 30.4822 49.9989C30.4822 53.555 31.4329 56.8891 33.0941 59.7607C34.9759 63.0136 35.7989 59.7607 37.5562 56.9298C40.1387 52.7693 44.7486 49.9989 50.0058 49.9989C55.263 49.9989 59.8728 52.7693 62.4554 56.9298C64.2126 59.7607 65.0357 63.0136 66.9174 59.7607C68.5786 56.8891 69.5294 53.555 69.5294 49.9989C69.5294 44.6285 67.3612 39.7646 63.8519 36.2348C56.351 28.9134 63.6235 22.2009 70.7546 29.3322Z" fill="#3516F0"/>
<path d="M88.4057 57.0487C84.5128 78.2597 64.1621 92.2987 42.9512 88.4057C32.3534 86.4607 23.546 80.4071 17.871 72.1906C12.3968 64.2645 20.3863 58.6581 25.9064 66.6473C30.1627 72.8075 36.767 77.3459 44.7134 78.8043C60.6214 81.7239 75.8846 71.1947 78.8043 55.2865L21.183 55.2618C12.5863 55.3905 10.3544 53.0679 11.1945 45.647C11.2959 44.7508 11.4289 43.8517 11.5942 42.9512C15.4871 21.7402 35.8378 7.70125 57.0487 11.5942C67.6558 13.5409 76.4693 19.6034 82.1437 27.8309C87.5623 35.6875 79.6512 41.4115 74.1084 33.3741C69.8526 27.203 63.2421 22.6558 55.2865 21.1956C39.3785 18.276 24.1153 28.8052 21.1956 44.7134L78.7995 44.6442C87.68 44.5095 89.636 46.8534 88.8161 54.2577C88.7133 55.1855 88.5768 56.1163 88.4057 57.0487Z" fill="#EF6213"/>
<path d="M37.5562 56.9298C40.1387 52.7693 44.7486 49.9989 50.0058 49.9989C55.2629 49.9989 59.8728 52.7693 62.4554 56.9298H37.5562Z" fill="#3516F0"/>
</svg>
