<svg width="80" height="80" viewBox="0 0 80 80" fill="none" xmlns="http://www.w3.org/2000/svg">
<circle cx="40" cy="40" r="40" fill="white"/>
<path d="M56.6046 23.4657C60.825 27.7028 63.4339 33.5463 63.4339 39.9992C63.4339 48.47 58.9382 55.8908 52.2028 60.0059C44.1739 64.9113 43.9102 57.2971 43.9102 51.7133C43.9102 49.5568 42.162 47.8086 40.0055 47.8086C37.8491 47.8086 36.1008 49.5568 36.1008 51.7133C36.1008 56.9847 36.1008 65.0724 27.8082 60.0059C21.0728 55.8908 16.5771 48.47 16.5771 39.9992C16.5771 33.5463 19.186 27.7028 23.4065 23.4657C29.2285 17.6206 34.674 23.2089 28.9286 28.9878C26.1212 31.8117 24.3866 35.7028 24.3866 39.9992C24.3866 42.844 25.1472 45.5113 26.4762 47.8086C27.9816 50.4109 28.64 47.8086 30.0458 45.5439C32.1119 42.2155 35.7998 39.9992 40.0055 39.9992C44.2112 39.9992 47.8991 42.2155 49.9652 45.5439C51.371 47.8086 52.0294 50.4109 53.5348 47.8086C54.8638 45.5113 55.6244 42.844 55.6244 39.9992C55.6244 35.7028 53.8899 31.8117 51.0824 28.9878C45.0816 23.1308 50.8997 17.7608 56.6046 23.4657Z" fill="#EF6213"/>
<path d="M70.7252 45.6389C67.6109 62.6077 51.3304 73.8389 34.3616 70.7245C25.8834 69.1685 18.8375 64.3257 14.2975 57.7524C9.91808 51.4116 16.3097 46.9265 20.7258 53.3178C24.1309 58.246 29.4143 61.8766 35.7714 63.0434C48.4978 65.3791 60.7083 56.9558 63.0441 44.2292L16.9471 44.2094C10.0697 44.3123 8.28422 42.4542 8.95626 36.5176C9.03742 35.8006 9.14379 35.0814 9.27602 34.3609C12.3904 17.3922 28.6709 6.16097 45.6397 9.27531C54.1253 10.8327 61.1761 15.6827 65.7156 22.2647C70.0505 28.55 63.7216 33.1292 59.2874 26.6993C55.8827 21.7623 50.5944 18.1246 44.2299 16.9565C31.5035 14.6207 19.2929 23.0441 16.9572 35.7707L63.0403 35.7153C70.1447 35.6075 71.7095 37.4827 71.0535 43.4061C70.9713 44.1483 70.8622 44.893 70.7252 45.6389Z" fill="#3516F0"/>
<path d="M31.0039 44.2154L49.0113 44.2232C46.8626 41.6421 43.6254 39.9992 40.0044 39.9992C36.3869 39.9992 33.1526 41.6388 31.0039 44.2154Z" fill="#EF6213"/>
</svg>
