<svg width="38" height="38" viewBox="0 0 38 38" fill="none" xmlns="http://www.w3.org/2000/svg">
<path fill-rule="evenodd" clip-rule="evenodd" d="M19 38C29.4934 38 38 29.4934 38 19C38 8.50659 29.4934 0 19 0C8.50658 0 0 8.50659 0 19C0 29.4934 8.50658 38 19 38ZM19 33.25C26.87 33.25 33.25 26.8701 33.25 19C33.25 11.1299 26.87 4.75 19 4.75C11.13 4.75 4.75 11.1299 4.75 19C4.75 26.8701 11.13 33.25 19 33.25Z" fill="#EF6213"/>
<path d="M24.2346 15.6213C26.1584 17.5625 24.0798 19.7043 22.134 17.7409L20.5752 16.1679V24.8581C20.5752 27.714 17.4575 27.714 17.4575 24.8581V16.1679L15.8987 17.7409C13.931 19.7266 11.808 17.6293 13.7981 15.6213L17.4575 11.9288C18.6626 10.7128 19.3259 10.6682 20.5752 11.9288L24.2346 15.6213Z" fill="#3516F0"/>
</svg>
